<?xml version="1.0" encoding="UTF-8" standalone="no"?>
<!-- Created with Inkscape (http://www.inkscape.org/) -->

<svg
   version="1.1"
   id="svg1"
   width="889.896"
   height="702.05688"
   viewBox="0 0 889.896 702.05689"
   xmlns="http://www.w3.org/2000/svg"
   xmlns:svg="http://www.w3.org/2000/svg">
  <defs
     id="defs1" />
  <g
     id="g1"
     transform="translate(-11.846349,-11.932764)">
    <path
       style="fill:#18ac53;fill-opacity:1;stroke:none"
       d="m 94.027663,590.66668 h 1.33333 c 15.164647,-39.09839 33.213227,-77.06453 48.800407,-116 36.56849,-91.34489 61.22669,-223.91085 180.53293,-232.11935 15.94165,-1.0968 32.31657,-0.0466 48,3.65845 28.66532,6.77193 56.47778,21.85453 72.74797,47.12756 7.56136,11.74536 9.96553,25.60006 17.20983,37.33334 14.46025,23.42069 46.01238,31.27413 70.04218,40.80143 12.0151,4.76371 26.1804,8.507 23.3797,24.5319 -7.054,40.36109 -44.1592,80.9961 -86.04635,83.88066 -24.72302,1.70255 -56.45255,-9.50834 -77.3282,8.40328 -15.88131,13.62646 -20.91167,34.52519 -22.89714,54.38273 -4.04903,40.49602 11.50293,85.26913 29.23356,121.33334 7.34595,14.94169 16.55416,38.53947 32.32512,46.42798 13.91772,6.96151 41.85555,1.57202 57.33333,1.57202 h 57.33338 c 7.5113,0 18.2115,1.91479 25.2129,-1.14404 17.1739,-7.50301 21.6345,-40.12549 19.8889,-56.1893 -3.1357,-28.85567 -29.7351,-30.62475 -50.4352,-41.76542 -11.8996,-6.40429 -20.1055,-17.6383 -24.6039,-30.23458 -11.12626,-31.15535 10.6715,-34.85046 26.2192,-56.01953 14.3953,-19.60014 18.7345,-40.83582 42.3847,-52.9681 14.0224,-7.19336 32.1026,-4.13932 45.214,-11.43522 13.5756,-7.55424 19.0547,-35.52519 34.786,-38.4681 7.0128,-1.31193 12.7214,8.80753 15.9619,13.55762 11.5261,16.89518 13.3406,36.90673 22.4661,54.66666 8.4539,16.45293 20.1296,29.83106 25.5237,48.00001 5.8215,19.60905 4.7676,40.22835 9.2325,60 4.8605,21.52327 16.9432,41.77539 29.0391,60 8.8151,13.28166 22.1224,38.57642 37.7767,44.33846 8.1891,3.01424 14.1232,-3.26733 14.6081,-11.00513 1.3259,-21.15747 0.059,-42.79781 0.059,-64 v -180 -53.33334 c 0,-7.30249 -1.6687,-17.08793 0.9898,-23.99898 3.7881,-9.84807 13.1216,-9.37053 21.9032,-9.4928 14.3429,-0.19971 29.5349,1.21826 43.8262,-0.10596 9.6154,-0.89095 18.8456,-7.8289 14.6008,-18.40124 -5.0457,-12.5671 -24.1894,-21.98434 -34.6533,-29.83228 -23.1119,-17.3339 -46.5306,-34.32959 -69.3334,-52.06791 -8.7459,-6.80351 -21.9488,-13.56726 -28.5288,-22.50102 -5.6713,-7.69999 -2.1378,-26.35051 -2.1378,-35.59981 v -78.66667 c 0,-9.49984 2.8446,-24.66887 -1.9424,-33.188277 -4.0073,-7.131796 -13.6271,-6.800334 -20.7243,-6.811727 h -56 c -6.9333,0 -16.8576,-1.584636 -21.9136,4.371378 -5.2033,6.129476 -3.0008,17.610556 -2.5936,24.967086 0.8085,14.60665 -0.5723,29.28739 0.5072,43.99487 -17.6656,-7.46802 -33.9958,-23.99898 -49.3333,-35.50208 -33.2977,-24.973222 -66.1573,-50.54032 -100,-74.777791 -14.91875,-10.68449 -34.79033,-33.26872 -53.33338,-36.10286 -15.45304,-2.3619004 -25.98474,7.6416 -37.33333,16.48356 -22.07793,17.20142 -44.27751,34.27043 -66.66667,51.063761 -86.45211,64.84481 -173.36744,129.24834 -258.666667,195.60291 -20.7196,16.11784 -41.66637,31.98019 -62.66667,47.73043 -8.13448,6.10087 -20.90979,12.67489 -23.20268,23.50208 -2.3238101,10.97322 8.78588,15.7502 17.81687,15.87654 15.00962,0.20996 55.40092,-8.0874 61.91462,9.45781 2.28656,6.15906 0.80452,14.84379 0.80452,21.33231 v 46.66667 c 0,50.2697 1.33334,100.38994 1.33334,150.66667 M 687.36101,420.00001 c -7.759,-2.44287 -7.8064,-11.69246 -14.7911,-15.5957 -24.759,-13.83594 -48.3829,-15.22945 -62.5669,-44.4043 -5.2138,-10.72408 -8.3526,-24.12744 -9.1893,-36 -0.5626,-7.98206 0.5901,-19.69287 -3.7757,-26.66154 -6.0332,-9.63001 -18.0901,-13.09424 -28.3437,-16.00513 v -2.66667 c 8.1938,-3.00883 17.8625,-3.53588 25.3323,-8.19238 14.1995,-8.85156 21.3066,-22.07869 40.0011,-22.45369 32.3297,-0.64856 33.1588,25.52103 48.5247,45.31274 7.2383,9.32312 17.664,15.94267 26.1419,24.05249 13.5813,12.99154 25.4183,27.76136 36.8684,42.61418 11.0919,14.38839 24.0734,25.8929 39.1316,35.99894 6.5639,4.40528 13.7341,8.31763 10.7068,17.33439 -2.3921,7.12501 -8.4759,17.4668 -17.3734,15.10495 -13.9476,-3.70236 -24.8696,-19.41667 -37.3334,-26.48043 -9.2618,-5.24907 -37.584,-3.58041 -46.3632,3.03186 -4.4246,3.33256 -5.377,10.0297 -6.9701,15.01029 m -63.9753,-146.86524 c -10.0792,2.86678 -6.2124,18.62773 3.9177,15.15023 9.2825,-3.18656 5.5659,-17.84761 -3.9177,-15.15023 m -300.02472,52.19857 c -4.70654,8.81922 -2.66666,20.86406 -2.66666,30.66667 0,34.12736 -5.74508,113.10425 -58.66667,90.83232 -7.26544,-3.05766 -14.17818,-6.94389 -20,-12.29012 -8.31224,-7.63318 -15.50574,-16.12569 -20,-26.5422 h -2.66667 c -10.94413,37.37411 38.16238,73.52466 72,65.75928 44.7262,-10.26428 47.75831,-73.45024 43.04218,-109.75928 -1.5576,-11.99186 -1.64006,-30.00924 -11.04218,-38.66667 m 89.33334,4.8313 c -20.42826,3.43502 -14.53772,34.33073 5.33333,30.40536 18.83427,-3.72058 13.62024,-33.59241 -5.33333,-30.40536 m 162.84468,203.20574 c -11.9174,6.8374 0.2583,23.91866 11.5175,17.05761 10.964,-6.68115 -0.2731,-23.50887 -11.5175,-17.05761 z"
       id="path9" />
    <ellipse
       style="fill:#18ac53;fill-opacity:1"
       id="path10"
       cx="415.35776"
       cy="345.57968"
       rx="17.91925"
       ry="17.409922" />
    <ellipse
       style="fill:#18ac53;fill-opacity:1"
       id="path10-7"
       cx="625.35742"
       cy="280.66486"
       rx="9.0768623"
       ry="8.5675335" />
    <ellipse
       style="fill:#18ac53;fill-opacity:1"
       id="path10-5"
       cx="581.29706"
       cy="541.42706"
       rx="13.187927"
       ry="13.218576" />
  </g>
</svg>
